<?xml version="1.0" encoding="iso-8859-1"?>
<!-- Uploaded to: SVG Repo, www.svgrepo.com, Generator: SVG Repo Mixer Tools -->
<svg fill="#000000" height="800px" width="800px" version="1.1" id="Layer_1" xmlns="http://www.w3.org/2000/svg" xmlns:xlink="http://www.w3.org/1999/xlink" 
	 viewBox="0 0 512 512" xml:space="preserve">
<g>
	<g>
		<polygon points="193.73,311.351 193.73,352.865 193.73,373.622 193.73,394.378 235.243,394.378 235.243,373.622 235.243,352.865 
			235.243,311.351 		"/>
	</g>
</g>
<g>
	<g>
		<polygon points="276.757,311.351 276.757,352.865 276.757,373.622 276.757,394.378 318.27,394.378 318.27,373.622 318.27,352.865 
			318.27,311.351 		"/>
	</g>
</g>
<g>
	<g>
		<path d="M256,117.622c-141.158,0-256,114.84-256,256c0,11.463,9.294,20.757,20.757,20.757c5.323,0,10.164-2.022,13.838-5.317
			c3.674,3.295,8.514,5.317,13.838,5.317h103.784v-20.757v-20.757v-62.27c0-11.463,9.292-20.757,20.757-20.757H256h83.027
			c11.462,0,20.757,9.294,20.757,20.757v62.27v20.757v20.757h103.784c5.323,0,10.164-2.022,13.838-5.317
			c3.673,3.295,8.513,5.317,13.838,5.317c11.462,0,20.757-9.294,20.757-20.757C512,232.462,397.158,117.622,256,117.622z"/>
	</g>
</g>
</svg>